<svg width="1440" height="415" viewBox="0 0 1440 415" fill="none" xmlns="http://www.w3.org/2000/svg">
<g filter="url(#filter0_d_1_10)">
<mask id="path-1-inside-1_1_10" fill="white">
<path d="M-35 270.5L1466 63.5V389.5H-35L-35 270.5Z"/>
</mask>
<path d="M-35 270.5L1466 63.5V389.5H-35L-35 270.5Z" fill="#120F0F"/>
<path d="M-35 270.5L-35.1366 269.509L-36 269.628V270.5H-35ZM1466 63.5H1467V62.3526L1465.86 62.5094L1466 63.5ZM1466 389.5V390.5H1467V389.5H1466ZM-35 389.5H-36V390.5H-35V389.5ZM-34.8634 271.491L1466.14 64.4906L1465.86 62.5094L-35.1366 269.509L-34.8634 271.491ZM1465 63.5V389.5H1467V63.5H1465ZM1466 388.5H-35V390.5H1466V388.5ZM-34 389.5L-34 270.5H-36L-36 389.5H-34Z" fill="#212121" mask="url(#path-1-inside-1_1_10)"/>
</g>
<defs>
<filter id="filter0_d_1_10" x="-79" y="0.5" width="1589" height="414" filterUnits="userSpaceOnUse" color-interpolation-filters="sRGB">
<feFlood flood-opacity="0" result="BackgroundImageFix"/>
<feColorMatrix in="SourceAlpha" type="matrix" values="0 0 0 0 0 0 0 0 0 0 0 0 0 0 0 0 0 0 127 0" result="hardAlpha"/>
<feOffset dy="-19"/>
<feGaussianBlur stdDeviation="22"/>
<feComposite in2="hardAlpha" operator="out"/>
<feColorMatrix type="matrix" values="0 0 0 0 0 0 0 0 0 0 0 0 0 0 0 0 0 0 0.25 0"/>
<feBlend mode="normal" in2="BackgroundImageFix" result="effect1_dropShadow_1_10"/>
<feBlend mode="normal" in="SourceGraphic" in2="effect1_dropShadow_1_10" result="shape"/>
</filter>
</defs>
</svg>
